<svg width="32" height="6" viewBox="0 0 32 6" fill="none" xmlns="http://www.w3.org/2000/svg">
<g clip-path="url(#clip0_806_9)">
<path d="M13.9309 5.47899C14.0443 5.47899 14.7339 5.4753 15.2906 5.43655C15.9634 5.38959 16.3101 5.1589 16.5642 4.82836C16.8793 4.41928 16.8773 3.65218 16.8769 3.05527C16.8765 2.38864 16.8857 0.457247 16.8828 0.285003C16.8806 0.112143 16.8152 0.0223302 16.6175 0.0239707C16.4196 0.0252011 15.8617 0.0239707 15.6701 0.025611L15.3289 0.0239707C15.1311 0.02233 15.0659 0.112143 15.063 0.285003V0.470166C15.0659 0.674603 15.0603 2.62322 15.0595 3.08008V3.28247C15.0542 3.70323 15.0029 4.11252 14.4078 4.17588C14.1511 4.20295 14.0334 4.21505 13.7154 4.21505C13.3969 4.21505 13.2796 4.20295 13.0194 4.17588C12.4246 4.11334 12.3885 3.70323 12.3829 3.28247V3.08008C12.3821 2.62322 12.3766 0.674603 12.379 0.470166V0.285003C12.3766 0.112143 12.311 0.0223302 12.1135 0.0239707L11.7719 0.025611C11.5804 0.0239707 11.0228 0.0252007 10.8247 0.0239707C10.6273 0.02233 10.5619 0.112143 10.5596 0.285003C10.5567 0.457247 10.5588 2.38864 10.558 3.05527C10.5576 3.65218 10.5559 4.41928 10.8707 4.82836C11.1241 5.1589 11.4662 5.38959 12.1367 5.43655C12.6934 5.47571 13.3625 5.47899 13.5107 5.47899H13.9309H13.9309ZM1.8383 5.22838C1.8344 5.416 1.77904 5.49002 1.58691 5.49453C1.39416 5.50007 0.451118 5.497 0.279284 5.49556C0.108269 5.49372 0.00287227 5.44184 0.00246216 5.25831C0.00123184 5.075 0.00123184 0.465613 1.52621e-06 0.290498C-0.00040858 0.116203 0.0818176 0.0335671 0.262469 0.0391035C0.442711 0.0434097 1.36893 0.0341823 1.61479 0.0384888C1.80078 0.0370536 1.84445 0.144296 1.84507 0.335815C1.84958 0.593362 1.84281 5.04178 1.8383 5.22838M27.5341 3.36369C27.5376 3.79635 27.6422 4.08588 28.138 4.16298C28.535 4.20399 29.072 4.2124 29.4841 4.17057C29.8614 4.12915 30.152 3.97618 30.169 3.54905C30.1881 3.18837 30.1897 3.12624 30.191 2.74586C30.193 1.82271 30.183 0.481874 30.186 0.35023L30.1877 0.294251C30.1846 0.0898131 30.2779 0.00348586 30.451 0.00348586L30.5545 0C30.7516 0.00164032 31.5445 0.00348586 31.7364 0.00348586C31.9095 0.00348586 32.0028 0.0898131 31.9999 0.294251L31.9975 0.358022C32.0012 0.550772 31.9952 2.59289 31.9932 3.19554C31.9823 3.4982 31.9608 4.20317 31.7276 4.65019C31.5246 5.03815 31.1613 5.3365 30.5434 5.39781C29.356 5.51613 28.2733 5.46691 27.4396 5.43205C26.8199 5.40007 26.4207 5.26125 26.0895 4.89318C25.7147 4.47118 25.695 3.75001 25.7005 2.92282C25.6933 1.09765 25.6878 0.571687 25.6907 0.397597V0.294251C25.6878 0.0898131 25.7811 0.00348586 25.9542 0.00348586L26.0571 0C26.256 0.00164032 27.0787 0.00348586 27.271 0.00348586C27.4435 0.00348586 27.5376 0.0898131 27.5341 0.294251C27.5312 0.499509 27.5333 2.83691 27.5341 3.35179M18.2975 0.0196645C18.4829 0.0141281 21.7982 0.0180242 22.8347 0.0237656C23.7525 0.0340182 24.0919 0.164637 24.341 0.498053C24.6285 0.883347 24.6582 1.36604 24.4259 1.76323C24.2592 2.04805 23.9508 2.29657 23.4882 2.52233C23.1209 2.71098 22.4779 2.99724 21.8494 3.27385C21.0077 3.64561 20.2455 3.96755 20.1173 4.0346C19.9439 4.12564 20.0095 4.262 20.1473 4.25995C20.5069 4.25565 23.9797 4.22735 24.1651 4.22694C24.3513 4.22675 24.4118 4.29379 24.4118 4.49371C24.4114 4.70287 24.4134 5.06048 24.4138 5.22268C24.4095 5.41768 24.3474 5.47099 24.1626 5.47284C23.9516 5.4751 20.2523 5.47612 19.9892 5.47735C19.4044 5.47591 18.8021 5.47817 18.4429 5.30408C17.9942 5.08611 17.8425 4.64914 17.8421 4.34279C17.8634 3.5962 18.2794 3.3571 19.0291 3.00975C19.8627 2.63142 22.3233 1.56699 22.4699 1.49892C22.6516 1.41423 22.5952 1.24773 22.4266 1.25326C22.2972 1.25593 18.5282 1.2752 18.342 1.275C18.1564 1.27439 18.0383 1.24445 18.0383 1.06441C18.0387 0.885192 18.0367 0.435717 18.0367 0.250759C18.0367 0.064981 18.1113 0.0256108 18.2975 0.0196643M8.56342 2.82723C7.72968 2.48089 5.29693 1.71133 4.97417 1.55159C4.81874 1.48475 4.8292 1.28626 5.03959 1.28626C5.39884 1.29159 8.96471 1.29856 9.1509 1.29979C9.33688 1.3002 9.41521 1.22782 9.41521 1.02748C9.41603 0.81853 9.41456 0.435081 9.41213 0.266733C9.40967 0.0955136 9.34795 0.0307169 9.19416 0.0303068C9.04037 0.0303068 4.92209 0.0352281 4.92209 0.0352281C3.77277 0.0325625 3.4779 0.201731 3.15228 0.592767C2.72782 1.10294 2.86274 1.79356 3.10634 2.14973C3.38071 2.54815 3.83367 2.72429 4.55443 2.97651C5.42754 3.2605 7.48381 3.98373 7.48381 3.98373C7.67226 4.06513 7.6579 4.2626 7.42517 4.2626C7.42517 4.2626 3.50271 4.22733 3.31693 4.22692C3.13075 4.22673 3.03991 4.31755 3.03909 4.49738C3.03909 4.67721 3.03745 5.00673 3.03663 5.19374C3.03663 5.3787 3.09035 5.4843 3.27654 5.49086C3.4615 5.49722 6.83421 5.48451 7.87136 5.48246C8.66041 5.48041 9.42259 5.2366 9.57904 4.36512C9.67275 3.61422 9.35492 3.14875 8.56342 2.82723" fill="#E60012"/>
</g>
<defs>
<clipPath id="clip0_806_9">
<rect width="32" height="5.49773" fill="white"/>
</clipPath>
</defs>
</svg>
